# xmcd
# 
# Track frame offsets:
#     151
#     16609
#     33749
#     46673
#     64068
#     83370
#     108111
#     126782
#     146921
#     164119
#     186039
#     206072
# 
# Disc length: 2820
# 
# Revision: 0
# Processed by: cddbd v1.5.2PL0 Copyright (c) Steve Scherf et al.
# Submitted via: fre:ac v1.0.17
# 
DISCID=9d0b020c
DTITLE=Robert Plant - Mighty Rearanger
DYEAR=1992
DGENRE=Blues
TTITLE0=?
TTITLE1=?
TTITLE2=?
TTITLE3=?
TTITLE4=?
TTITLE5=?
TTITLE6=?
TTITLE7=?
TTITLE8=?
TTITLE9=?
TTITLE10=?
TTITLE11=?
EXTD=
EXTT0=
EXTT1=
EXTT2=
EXTT3=
EXTT4=
EXTT5=
EXTT6=
EXTT7=
EXTT8=
EXTT9=
EXTT10=
EXTT11=
PLAYORDER=
